<svg id="Layer_1" data-name="Layer 1" xmlns="http://www.w3.org/2000/svg" viewBox="0 0 33.78 31.96"><defs><style>.cls-1{fill:#25d7fd;stroke:#25d7fd;}</style></defs><path class="cls-1" d="M10.49,18.82H29.72l3.4-12.15h-26L6.33,3.34A3.68,3.68,0,0,0,2.79.5H.5V1.89H2.79A2.29,2.29,0,0,1,5,3.63L8.7,18A3,3,0,0,0,7.44,20.5a3.08,3.08,0,0,0,3.06,3.05H29.24V22.16H10.49a1.67,1.67,0,1,1,0-3.34ZM26.67,6.6ZM18,6.6ZM31.32,8l-2.63,9.44H9.94L7.51,8Z" transform="translate(0 0)"/><path class="cls-1" d="M23.13,25.62a2.92,2.92,0,1,0-.1,5.84h.1a2.89,2.89,0,0,0,2.92-2.87v-.05A2.94,2.94,0,0,0,23.13,25.62Zm0,4.52a1.6,1.6,0,1,1,0-3.2h0a1.56,1.56,0,0,1,1.6,1.54v.06A1.62,1.62,0,0,1,23.13,30.14Z" transform="translate(0 0)"/><path class="cls-1" d="M12.44,25.62a2.92,2.92,0,1,0,2.92,2.92h0A2.94,2.94,0,0,0,12.44,25.62Zm0,4.52a1.6,1.6,0,1,1,1.6-1.6A1.6,1.6,0,0,1,12.44,30.14Z" transform="translate(0 0)"/></svg>