<svg id="Layer_1" data-name="Layer 1" xmlns="http://www.w3.org/2000/svg" viewBox="0 0 31.38 31.39"><defs><style>.cls-1{fill:#25d7fd;stroke:#25d7fd;stroke-width:0.7px;}</style></defs><path class="cls-1" d="M28.28,31H3.11A2.75,2.75,0,0,1,.35,28.28l.09-2.21c2.3-4.83,5.86-5.86,6-5.9l.26,0H8.5a2.65,2.65,0,0,0,2.64-2.63v-.86a9.45,9.45,0,0,1-1.58-3l-.07-.21a3.2,3.2,0,0,1-.67-3.87A2.39,2.39,0,0,1,9,9.4v-1c0-.69,0-1.38,0-2.07a6.45,6.45,0,0,1,1-3.38A5.75,5.75,0,0,1,13.32.64a10.2,10.2,0,0,1,4.33-.1A6,6,0,0,1,20.9,2.23a6.23,6.23,0,0,1,1.54,4.18c0,.75,0,1.5,0,2.23v.77a.41.41,0,0,1,.07.11A3.18,3.18,0,0,1,22,13.34l-.16.14a9.89,9.89,0,0,1-1.63,3.2v.82a2.65,2.65,0,0,0,2.63,2.64l2.06,0c.15,0,3.7,1.07,6,5.91l.09.41v1.8A2.75,2.75,0,0,1,28.28,31Zm-26-4.34v1.58a.83.83,0,0,0,.84.84H28.28a.84.84,0,0,0,.84-.84V26.7a9,9,0,0,0-4.59-4.65H22.88a4.55,4.55,0,0,1-4.55-4.55V16l.22-.27a8,8,0,0,0,1.54-2.9,1.39,1.39,0,0,1,.53-.77,1.29,1.29,0,0,0,.24-1.56,1.46,1.46,0,0,1-.33-.94V6.44a4.33,4.33,0,0,0-1-2.89,4,4,0,0,0-2.21-1.12,8.1,8.1,0,0,0-3.5.07A3.83,3.83,0,0,0,11.56,4a4.54,4.54,0,0,0-.69,2.35c0,.66,0,1.34,0,2V9.54a1.38,1.38,0,0,1-.31.91,1.31,1.31,0,0,0,.23,1.61,1.69,1.69,0,0,1,.58.94,7.85,7.85,0,0,0,1.47,2.69l.23.26v1.54A4.56,4.56,0,0,1,8.5,22.05H6.85A8.89,8.89,0,0,0,2.27,26.7Z" transform="translate(0 0)"/></svg>